<?xml version="1.0" encoding="UTF-8"?><svg id="a" xmlns="http://www.w3.org/2000/svg" xmlns:xlink="http://www.w3.org/1999/xlink" viewBox="0 0 165 105"><defs><style>.c{fill:#fff;}.d{clip-path:url(#b);}.e{fill:#ea4335;}</style><clipPath id="b"><circle cx="82.5" cy="52.5" r="49.41" style="fill:#ea4335;"/></clipPath></defs><g><circle cx="82.5" cy="52.5" r="49.41" style="fill:#ea4335;"/><g style="clip-path:url(#b);"><path d="M113.82,44.9h-12.05c-1.2,0-2.16-.97-2.16-2.16V26.68h.03V1.4L81.97-.65l-16.87,2.05V26.68h.07v16.05c0,1.2-.97,2.16-2.16,2.16h-12.05c-1.7,0-2.74,1.87-1.83,3.31l31.43,50.27c.85,1.36,2.82,1.36,3.67,0l31.43-50.27c.9-1.44-.13-3.31-1.83-3.31Z" style="fill:#fff;"/></g></g><path d="M69.46,52.95v-10.55c0-3.26,1.49-5.42,4.8-5.42s4.8,2.16,4.8,5.42v10.55c0,3.21-1.53,5.37-4.8,5.37s-4.8-2.16-4.8-5.37Zm7.19,.14v-10.89c0-1.82-.72-3.07-2.4-3.07s-2.4,1.25-2.4,3.07v10.89c0,1.82,.72,3.02,2.4,3.02s2.4-1.2,2.4-3.02Zm-1.77,17.6l13.24-33.57h2.25l-13.24,33.57h-2.25Zm11.08-5.23v-10.6c0-3.26,1.53-5.42,4.8-5.42s4.8,2.16,4.8,5.42v10.6c0,3.21-1.53,5.42-4.8,5.42-3.26,0-4.8-2.21-4.8-5.42Zm7.19,.14v-10.93c0-1.82-.67-3.02-2.4-3.02s-2.4,1.2-2.4,3.02v10.93c0,1.82,.72,3.07,2.4,3.07,1.73,0,2.4-1.25,2.4-3.07Z"/></svg>