<?xml version="1.0" encoding="UTF-8"?><svg id="a" xmlns="http://www.w3.org/2000/svg" viewBox="0 0 165 105"><g><path d="M12.87,81.76v-10.28h4.37c1.1,0,1.9,.09,2.39,.28,.5,.18,.9,.51,1.19,.99,.3,.47,.45,1.01,.45,1.62,0,.77-.23,1.41-.68,1.91-.45,.5-1.13,.82-2.03,.95,.45,.26,.82,.55,1.11,.86,.29,.31,.69,.87,1.18,1.67l1.25,2h-2.48l-1.5-2.24c-.53-.8-.9-1.3-1.09-1.51s-.4-.35-.62-.43c-.22-.08-.57-.12-1.04-.12h-.42v4.29h-2.07Zm2.07-5.93h1.54c1,0,1.62-.04,1.86-.13s.44-.23,.58-.43c.14-.21,.21-.46,.21-.77,0-.35-.09-.62-.28-.84-.18-.21-.44-.35-.78-.4-.17-.02-.67-.04-1.51-.04h-1.62v2.61Z" style="fill:#6c6e71;"/><path d="M27.53,79.39l1.96,.33c-.25,.72-.65,1.27-1.2,1.64-.54,.38-1.23,.56-2.04,.56-1.29,0-2.25-.42-2.87-1.27-.49-.68-.74-1.53-.74-2.57,0-1.23,.32-2.2,.97-2.9,.65-.7,1.46-1.05,2.45-1.05,1.11,0,1.98,.37,2.62,1.1,.64,.73,.95,1.85,.92,3.36h-4.94c.01,.58,.17,1.04,.48,1.36s.68,.49,1.14,.49c.31,0,.57-.08,.78-.25,.21-.17,.37-.44,.48-.81Zm.11-1.99c-.01-.57-.16-1-.44-1.3-.28-.3-.62-.44-1.02-.44-.43,0-.79,.16-1.07,.47-.28,.31-.42,.74-.41,1.28h2.94Z" style="fill:#6c6e71;"/><path d="M33.25,81.76l-3-7.44h2.07l1.4,3.8,.41,1.27c.11-.32,.18-.54,.2-.64,.06-.21,.14-.42,.21-.63l1.42-3.8h2.03l-2.96,7.44h-1.77Z" style="fill:#6c6e71;"/><path d="M39.19,73.3v-1.82h1.97v1.82h-1.97Zm0,8.45v-7.44h1.97v7.44h-1.97Z" style="fill:#6c6e71;"/><path d="M47.49,79.39l1.96,.33c-.25,.72-.65,1.27-1.2,1.64-.54,.38-1.23,.56-2.04,.56-1.29,0-2.25-.42-2.87-1.27-.49-.68-.74-1.53-.74-2.57,0-1.23,.32-2.2,.97-2.9,.65-.7,1.46-1.05,2.45-1.05,1.11,0,1.98,.37,2.62,1.1,.64,.73,.95,1.85,.92,3.36h-4.94c.01,.58,.17,1.04,.48,1.36s.68,.49,1.14,.49c.31,0,.57-.08,.78-.25,.21-.17,.37-.44,.48-.81Zm.11-1.99c-.01-.57-.16-1-.44-1.3-.28-.3-.62-.44-1.02-.44-.43,0-.79,.16-1.07,.47-.28,.31-.42,.74-.41,1.28h2.94Z" style="fill:#6c6e71;"/><path d="M52.55,81.76l-2.36-7.44h1.91l1.4,4.88,1.28-4.88h1.9l1.24,4.88,1.42-4.88h1.94l-2.39,7.44h-1.89l-1.28-4.79-1.26,4.79h-1.91Z" style="fill:#6c6e71;"/><path d="M61.64,79.63l1.98-.3c.08,.38,.25,.67,.51,.87,.26,.2,.62,.3,1.08,.3,.51,0,.89-.09,1.15-.28,.17-.13,.26-.31,.26-.53,0-.15-.05-.27-.14-.37-.1-.09-.32-.18-.66-.26-1.59-.35-2.6-.67-3.02-.96-.59-.4-.88-.96-.88-1.68,0-.64,.25-1.19,.76-1.63s1.3-.66,2.37-.66,1.78,.17,2.27,.5c.5,.33,.84,.82,1.02,1.47l-1.86,.34c-.08-.29-.23-.51-.45-.67-.22-.15-.54-.23-.95-.23-.52,0-.89,.07-1.11,.22-.15,.1-.22,.24-.22,.4,0,.14,.07,.26,.2,.36,.18,.13,.79,.32,1.84,.55,1.05,.24,1.78,.53,2.2,.88,.41,.35,.62,.84,.62,1.47,0,.68-.29,1.27-.85,1.76-.57,.49-1.41,.74-2.53,.74-1.01,0-1.82-.21-2.41-.62s-.98-.97-1.16-1.68Z" style="fill:#6c6e71;"/></g><g><polygon points="79.13 71.47 81.38 75.48 86.21 76.43 83.01 80.04 83.63 85.14 79.13 82.83 74.71 85.14 75.39 79.97 72.19 76.5 76.68 75.62 79.13 71.47" style="fill:#f9af18;"/><polygon points="95.88 71.47 98.12 75.48 102.95 76.43 99.75 80.04 100.37 85.14 95.88 82.83 91.45 85.14 92.13 79.97 88.93 76.5 93.43 75.62 95.88 71.47" style="fill:#f9af18;"/><polygon points="112.62 71.47 114.86 75.48 119.69 76.43 116.5 80.04 117.11 85.14 112.62 82.83 108.19 85.14 108.87 79.97 105.68 76.5 110.17 75.62 112.62 71.47" style="fill:#f9af18;"/><polygon points="129.36 71.47 131.6 75.48 136.44 76.43 133.24 80.04 133.85 85.14 129.36 82.83 124.94 85.14 125.62 79.97 122.42 76.5 126.91 75.62 129.36 71.47" style="fill:#f9af18;"/><polygon points="146.1 71.47 148.35 75.48 153.18 76.43 149.98 80.04 150.59 85.14 146.1 82.83 141.68 85.14 142.36 79.97 139.16 76.5 143.65 75.62 146.1 71.47" style="fill:#f9af18;"/></g><g><path d="M71.69,43.82c0,7.1-5.56,12.34-12.38,12.34s-12.38-5.23-12.38-12.34,5.56-12.34,12.38-12.34,12.38,5.18,12.38,12.34Zm-5.42,0c0-4.44-3.22-7.48-6.96-7.48s-6.96,3.04-6.96,7.48,3.22,7.48,6.96,7.48,6.96-3.09,6.96-7.48Z" style="fill:#e94435;"/><path d="M98.39,43.82c0,7.1-5.56,12.34-12.38,12.34s-12.38-5.23-12.38-12.34,5.56-12.34,12.38-12.34,12.38,5.18,12.38,12.34Zm-5.42,0c0-4.44-3.22-7.48-6.96-7.48s-6.96,3.04-6.96,7.48,3.22,7.48,6.96,7.48,6.96-3.09,6.96-7.48Z" style="fill:#f8bb15;"/><path d="M123.98,32.23v22.15c0,9.11-5.37,12.83-11.73,12.83-5.98,0-9.58-4-10.94-7.27l4.72-1.96c.84,2.01,2.9,4.38,6.21,4.38,4.07,0,6.59-2.51,6.59-7.23v-1.77h-.19c-1.21,1.5-3.55,2.8-6.5,2.8-6.17,0-11.82-5.37-11.82-12.29s5.65-12.38,11.82-12.38c2.94,0,5.28,1.31,6.5,2.76h.19v-2.01h5.15Zm-4.76,11.63c0-4.34-2.9-7.52-6.59-7.52s-6.87,3.18-6.87,7.52,3.13,7.43,6.87,7.43,6.59-3.13,6.59-7.43Z" style="fill:#547dbe;"/><path d="M132.47,19.25V55.4h-5.28V19.25h5.28Z" style="fill:#34a751;"/><path d="M153.06,47.88l4.21,2.8c-1.36,2.01-4.63,5.47-10.28,5.47-7.01,0-12.24-5.42-12.24-12.34,0-7.34,5.28-12.34,11.64-12.34s9.53,5.1,10.56,7.85l.56,1.4-16.49,6.83c1.26,2.48,3.23,3.74,5.98,3.74s4.67-1.36,6.07-3.42h0Zm-12.95-4.44l11.03-4.58c-.61-1.54-2.43-2.61-4.58-2.61-2.75,0-6.59,2.43-6.45,7.19Z" style="fill:#e94435;"/><path d="M26.93,40.61v-5.23h17.64c.17,.91,.26,1.99,.26,3.16,0,3.93-1.07,8.78-4.53,12.24-3.37,3.5-7.67,5.37-13.36,5.37-10.56,0-19.44-8.6-19.44-19.16s8.88-19.16,19.44-19.16c5.84,0,10,2.29,13.13,5.28l-3.69,3.69c-2.24-2.1-5.28-3.74-9.44-3.74-7.71,0-13.74,6.21-13.74,13.92s6.03,13.92,13.74,13.92c5,0,7.85-2.01,9.67-3.83,1.48-1.48,2.45-3.59,2.84-6.48h-12.51Z" style="fill:#547dbe;"/></g></svg>