<?xml version="1.0" encoding="UTF-8"?><svg id="a" xmlns="http://www.w3.org/2000/svg" viewBox="0 0 165 105"><path d="M155.44,17.5H31.9c-1.14,0-2.06,.92-2.06,2.06V85.44c0,1.14,.92,2.06,2.06,2.06h123.54c1.14,0,2.06-.92,2.06-2.06V19.56c0-1.14-.92-2.06-2.06-2.06Zm-2.06,65.89H33.96V21.61h119.42v61.77Z" style="fill:#ea4335;"/><path d="M26.08,96.15L12.03,36l15.41-3.59v-4.23l-18.35,4.28c-.53,.12-.99,.45-1.28,.92-.29,.46-.38,1.02-.26,1.56l14.99,64.16c.22,.95,1.07,1.59,2,1.59,.16,0,.31-.02,.47-.05l45.93-10.72h-18.11l-26.75,6.25Z" style="fill:#ea4335;"/><path d="M128.31,8.85l1.46,6.25h4.23l-2.15-9.19c-.26-1.11-1.37-1.8-2.47-1.54l-45.93,10.72h18.11l26.75-6.25Z" style="fill:#ea4335;"/><path d="M103.96,78.75c.85,0,1.54-.69,1.54-1.54v-6.18c0-.85-.69-1.54-1.54-1.54s-1.54,.69-1.54,1.54v6.18c0,.85,.69,1.54,1.54,1.54Z" style="fill:#4285f4;"/><path d="M103.96,64.34c.85,0,1.54-.69,1.54-1.54v-6.18c0-.85-.69-1.54-1.54-1.54s-1.54,.69-1.54,1.54v6.18c0,.85,.69,1.54,1.54,1.54Z" style="fill:#4285f4;"/><path d="M103.96,49.93c.85,0,1.54-.69,1.54-1.54v-6.18c0-.85-.69-1.54-1.54-1.54s-1.54,.69-1.54,1.54v6.18c0,.85,.69,1.54,1.54,1.54Z" style="fill:#4285f4;"/><path d="M103.96,35.51c.85,0,1.54-.69,1.54-1.54v-6.18c0-.85-.69-1.54-1.54-1.54s-1.54,.69-1.54,1.54v6.18c0,.85,.69,1.54,1.54,1.54Z" style="fill:#4285f4;"/><path d="M114.26,37.57h28.83c.85,0,1.54-.69,1.54-1.54s-.69-1.54-1.54-1.54h-28.83c-.85,0-1.54,.69-1.54,1.54s.69,1.54,1.54,1.54Z" style="fill:#4285f4;"/><path d="M114.26,47.87h28.83c.85,0,1.54-.69,1.54-1.54s-.69-1.54-1.54-1.54h-28.83c-.85,0-1.54,.69-1.54,1.54s.69,1.54,1.54,1.54Z" style="fill:#4285f4;"/><path d="M114.26,60.22h18.53c.85,0,1.54-.69,1.54-1.54s-.69-1.54-1.54-1.54h-18.53c-.85,0-1.54,.69-1.54,1.54s.69,1.54,1.54,1.54Z" style="fill:#4285f4;"/><path d="M114.26,70.52h18.53c.85,0,1.54-.69,1.54-1.54s-.69-1.54-1.54-1.54h-18.53c-.85,0-1.54,.69-1.54,1.54s.69,1.54,1.54,1.54Z" style="fill:#4285f4;"/><path d="M76.48,67.99l-.51-.27c-.13-.07-.19-.23-.13-.37,.77-1.77,1.17-3.65,1.18-5.6-1.6-.12-2.99-1.24-3.42-2.81-.01-.05,0-.1,.04-.14,.29-.29,.65-.51,1.05-.65,.27-.1,.55-.15,.83-.16h0c.06,0,.12,.04,.14,.1,.49,1.44,1.85,2.4,3.37,2.4,.29,0,.59-.04,.88-.11,.06-.02,.13,.01,.16,.07,.03,.06,.02,.13-.02,.17-.66,.67-1.52,1.06-2.45,1.13-.02,1.93-.39,3.81-1.13,5.58l.96,.51,.13,.07,.09,.05s.02,.02,.03,.03c2.28-2.67,3.54-6.06,3.54-9.58,0-6.17-3.89-11.73-9.69-13.85-.37-.54-.78-1.05-1.24-1.5-3.46-3.46-8.71-3.84-11.7-.85-1.45,1.45-2.16,3.47-2,5.68,.16,2.21,1.17,4.34,2.85,6.01,2.81,2.81,6.76,3.61,9.77,2.2-1.24,.8-2.76,1.17-4.38,1.05-2.14-.16-4.21-1.14-5.83-2.76-1.71-1.71-2.73-3.98-2.78-6.22,0-.06-.04-.11-.09-.13-.05-.02-.12,0-.16,.03-2.6,2.64-4.1,6.14-4.22,9.84,0,.02-.01,.04-.01,.06,0,2.05-1.53,3.78-3.57,4.02-.07,0-.13,.07-.13,.14,0,.07,.06,.14,.13,.14,.19,.02,.35,.03,.51,.03,1.26,0,2.43-.53,3.26-1.48,.46,2.75,1.68,5.31,3.55,7.4,.03,.03,.07,.05,.11,.05h5.94c.08,0,.14-.07,.14-.15,0-3.7,2.15-6.71,4.79-6.71s4.8,3.01,4.8,6.72c0,.08,.07,.15,.15,.15h5.59l-.27-.15-.27-.15Zm-1.71-16.28c.45,0,.82,.37,.82,.82s-.37,.82-.82,.82-.82-.37-.82-.82,.37-.82,.82-.82Z" style="fill:#34a853;"/></svg>