<?xml version="1.0" encoding="UTF-8"?><svg id="a" xmlns="http://www.w3.org/2000/svg" viewBox="0 0 165 105"><path d="M53.29,38.34c0-16.04,13-29.03,29.03-29.03s29.03,13,29.03,29.03-13,29.03-29.03,29.03-29.03-13-29.03-29.03h0Zm29.03,53.05s37.28-31.03,37.28-51.61S102.91,2.5,82.32,2.5,45.04,19.19,45.04,39.78s37.28,51.61,37.28,51.61h0Z" style="fill:#ea4335;"/><path d="M82.5,102.5c20.69,0,37.46-4.57,37.46-10.22,0-3.54-6.59-6.65-16.6-8.49-.31-.06-.61,.19-.61,.5v.56c0,.2,.12,.38,.3,.46,1.98,.94,3.11,2.03,3.11,3.2,0,3.56-10.59,6.45-23.66,6.45s-23.66-2.89-23.66-6.45c0-1.58,2.09-3.03,5.56-4.15,.21-.07,.36-.26,.36-.49,0-.31-.28-.55-.59-.51-11.41,1.75-19.12,5.08-19.12,8.91,0,5.64,16.77,10.22,37.46,10.22h0Z" style="fill:#4285f4;"/><path d="M70.61,51.27c-1.09,0-1.96,.88-1.96,1.96v5.27c1.23,.84,2.55,1.57,3.93,2.18v-7.45c0-1.09-.88-1.96-1.97-1.96h0Z" style="fill:#34a853;"/><path d="M94.2,51.27c-1.09,0-1.97,.88-1.97,1.96v7.38c1.38-.62,2.7-1.36,3.93-2.22v-5.16c0-1.09-.88-1.96-1.96-1.96h0Z" style="fill:#34a853;"/><path d="M73.67,26.82c0-4.92,3.99-8.91,8.9-8.91s8.91,3.99,8.91,8.91-3.99,8.9-8.91,8.9-8.9-3.99-8.9-8.9h0Zm5.58,12.94c1.06,.27,2.18,.42,3.33,.42,1.01,0,1.99-.11,2.93-.32l-.58,1.01c-.36,.62-.55,1.33-.55,2.05v6.91l6.92-11.99c.1-.18,.18-.37,.22-.55,6.23,1.36,10.7,6.93,10.7,13.37v1.76c2.82-3.97,4.48-8.83,4.48-14.06,0-13.44-10.93-24.37-24.37-24.37s-24.37,10.93-24.37,24.37c0,5.34,1.72,10.28,4.65,14.3v-1.99c0-6.44,4.47-12.01,10.7-13.37,.05,.19,.12,.37,.22,.55l6.92,11.99v-6.91c0-.72-.19-1.43-.55-2.05l-.64-1.11h0Z" style="fill:#34a853;"/></svg>