<?xml version="1.0" encoding="UTF-8"?><svg id="a" xmlns="http://www.w3.org/2000/svg" viewBox="0 0 50 50"><rect x=".5" y=".5" width="49" height="49" rx="10.09" ry="10.09" style="fill:#104a8e;"/><g><rect x="11.74" y="20.3" width="5.73" height="18.28" style="fill:#fff;"/><path d="M32.98,19.9c-.22-.02-.44-.04-.66-.05-3.21-.13-5.03,1.77-5.65,2.59-.17,.22-.25,.36-.25,.36v-2.45h-5.49v18.28h5.73v-8.59c0-1.24-.1-2.57,.52-3.69,.53-.95,1.48-1.43,2.55-1.43,3.17,0,3.24,2.86,3.24,3.14v10.66h5.73v-11.93c0-4.08-2.07-6.49-5.73-6.89Z" style="fill:#fff;"/><circle cx="14.61" cy="14.61" r="3.32" style="fill:#fff;"/></g></svg>