<?xml version="1.0" encoding="UTF-8"?><svg id="a" xmlns="http://www.w3.org/2000/svg" viewBox="0 0 50 50"><rect x=".5" y=".5" width="49" height="49" rx="10.09" ry="10.09" style="fill:#104a8e;"/><g><path d="M35.71,41.08H14.29c-2.96,0-5.38-2.41-5.38-5.38V14.29c0-2.96,2.41-5.38,5.38-5.38h21.41c2.96,0,5.38,2.41,5.38,5.38v21.41c0,2.96-2.41,5.38-5.38,5.38ZM14.29,10.68c-1.99,0-3.62,1.62-3.62,3.62v21.41c0,1.99,1.62,3.62,3.62,3.62h21.41c1.99,0,3.62-1.62,3.62-3.62V14.29c0-1.99-1.62-3.62-3.62-3.62H14.29Z" style="fill:#fff;"/><path d="M25,33.25c-2.2,0-4.28-.86-5.84-2.42-1.56-1.56-2.42-3.63-2.42-5.84s.86-4.28,2.42-5.84c1.56-1.56,3.63-2.42,5.84-2.42s4.28,.86,5.84,2.42c1.56,1.56,2.42,3.63,2.42,5.84s-.86,4.28-2.42,5.84c-1.56,1.56-3.63,2.42-5.84,2.42Zm0-14.75c-3.58,0-6.49,2.91-6.49,6.49s2.91,6.49,6.49,6.49,6.49-2.91,6.49-6.49-2.91-6.49-6.49-6.49Z" style="fill:#fff;"/><circle cx="35.24" cy="13.39" r="1.58" style="fill:#fff;"/></g></svg>