<?xml version="1.0" encoding="UTF-8"?><svg id="a" xmlns="http://www.w3.org/2000/svg" viewBox="0 0 50 50"><rect x=".5" y=".5" width="49" height="49" rx="10.09" ry="10.09" style="fill:#104a8e;"/><path d="M10.83,33.82c3.05,.18,5.71-.55,8.32-2.44-2.63-.45-4.45-1.65-5.45-4.14,.76-.11,1.44,.09,2.23-.22-2.59-1.13-4.26-2.84-4.33-5.79,.81,.07,1.44,.6,2.41,.53-2.38-2.33-3.11-4.86-1.61-7.94,2.49,2.86,5.4,4.79,8.94,5.7,.19,.05,.39,.1,.58,.15,.92,.21,2,.66,2.55,.59,.96-.12,0-1.22,.24-2.64,.76-4.44,5.64-6.45,9.26-3.85,1.06,.76,1.9,.75,2.93,.29,.55-.24,1.1-.47,1.74-.75-.15,1.27-1.12,1.96-1.9,2.91,.89,.2,1.6-.05,2.41-.31-.28,.91-.96,1.43-1.58,1.93-.64,.52-.9,1.06-.92,1.9-.4,12.8-14.94,22.7-24.88,14.82-.96-.76-.02,0-.95-.75Z" style="fill:#fcfdfe;"/></svg>